<?xml version="1.0" encoding="utf-8"?>
<!-- Generator: Adobe Illustrator 23.0.1, SVG Export Plug-In . SVG Version: 6.00 Build 0)  -->
<svg version="1.1" id="Layer_1" xmlns="http://www.w3.org/2000/svg" xmlns:xlink="http://www.w3.org/1999/xlink" x="0px" y="0px"
	 viewBox="0 0 308.99 59.41" style="enable-background:new 0 0 308.99 59.41;" xml:space="preserve">
<style type="text/css">
	.st0{filter:url(#Adobe_OpacityMaskFilter);}
	.st1{fill:#FFFFFF;}
	.st2{mask:url(#mask-2_2_);fill:#F9C6E2;}
</style>
<g>
	<g id="Layout3---Home_1_">
		<g id="Home-desktop_1_" transform="translate(-105.000000, -987.000000)">
			<g id="Page-1_1_" transform="translate(105.000000, 987.000000)">
				<defs>
					<filter id="Adobe_OpacityMaskFilter" filterUnits="userSpaceOnUse" x="0" y="0" width="308.99" height="59.41">
						<feColorMatrix  type="matrix" values="1 0 0 0 0  0 1 0 0 0  0 0 1 0 0  0 0 0 1 0"/>
					</filter>
				</defs>
				<mask maskUnits="userSpaceOnUse" x="0" y="0" width="308.99" height="59.41" id="mask-2_2_">
					<g class="st0">
						<polygon id="path-1_2_" class="st1" points="0,-16.16 309,-16.16 309,62.73 0,62.73 						"/>
					</g>
				</mask>
				<path id="Fill-1_1_" class="st2" d="M307.4,36.06c-0.43,0.17-0.75,0.41-1.18,0.66c2.06,0.33,0.67,1.08,1.16,1.74
					c-0.63-0.16-0.93-0.24-1.11-0.28c-0.13,0.35-0.12,0.72-0.41,1.01c-0.55,0.55,0.45,0.71,0.93,0.83c1.04,0.26,1.86,1.29,1.08,1.77
					c-3,1.86-6.05,3.7-9.1,5.54c-1.85,1.12-3.8,2.2-5.57,3.34c-1.15,0.74-2.17,1.42-4.14,1.74c-1.2,0.2-2.09,0.89-3.09,1.37
					c-0.66,0.32-1.28,0.66-2.06,1.07c-0.08-0.2-0.15-0.36-0.22-0.52c-4.63,2.53-9.77,2.83-16.08,4.24c-0.41-0.46-0.63,0.21-0.82,0
					c-1.44,0.3-2.75-0.33-4.35,0c-1.57-0.82-1.15-0.02-2.43,0c-0.92,0.02-1.81-0.18-2.72,0c-0.38,0.08-0.89,0.06-1.12,0
					c-0.29-0.08-0.37,0.12-0.47,0c-0.91-0.04-1.89,0.04-3.03,0c0.76-0.83-0.03-0.08-1.11,0c-1.36,0.1-3.99,0.32-3.2,0
					c-3.01-1.17-4.88,0.24-5.89,0c-0.64-0.15-0.93,0.37-1.39,0c-0.72,0.27-1.4-0.26-2.07,0c-0.12-0.03-0.27,0.03-0.27,0
					c-0.32-1.31-0.46-0.73-2.76,0c-0.79,0.25-1.68-0.12-2.83,0c0.34-0.35-1.93,0.6-1.6,0.31c-3.76-0.66-5.96,0.54-5.85-0.16
					c-1.19,0.65-1.08-0.73-2.38-0.15c-2.99,1.33-6.07-1.29-9.14,0c-0.19,0.08-0.58-0.01-0.88,0c-0.03-0.07-0.07,0.07-0.1,0
					c-1.35,0.39-2.7-0.47-4.3,0c-0.08-1.54-2.93-0.03-3.14,0c-1.42,0.22-2.31-0.03-3.99,0c-0.54,0.01-1.25,0.37-1.01,0
					c-1.12,0.26-2.53,0.64-2.22,0c-4.79,2.07-9.59-2.2-14.68,0c-0.87,0.42-1.62-0.32-2.19,0c-0.77,0.43-1.1,0.39-1.51,0
					c-0.23-0.22-0.56,0.42-1.12,0c-0.72,0.48-1.41-0.6-2.3,0c-0.24-0.41-0.37,0.27-0.53,0c-0.42,0.31-0.75-0.25-1.1,0
					c-0.63,0.46-1.09,0.36-1.53,0c-0.09-0.08-0.33,0.06-0.49,0c-0.44-0.18-0.88,0.29-1.6,0c-1.14-0.04-1.32,0.67-3.18,0.61
					c-3.26-0.82-4.09,0.2-4.57,0.22c-3.1-0.33-1.46-0.99-4.09-0.83c-0.35,0.09-1.04-0.26-2.05,0c-1,0.03-1.62,0.86-3.07,0
					c-0.47,0.43-0.87-0.37-1.33,0c-0.15,0.12-0.46-0.09-0.7,0c-0.16-0.12-0.32,0.14-0.52,0c-0.34,0.08-1.01,0.36-1.17,0.34
					c-0.77-0.4-1.35-0.1-2.05-0.34c-1.84,0.7-3.49-0.62-5.13,0c-0.95,0.35-1.82-0.25-2.87,0c-1.53,0.37-3.21-0.34-4.77,0
					c-0.78,0.17-3.29-0.79-5.44,0c-1.38,0.29-2.09,0.05-2.19,0c-1.07,0.03-2.14-0.05-3.81,0c-3.35,0.36-2.82-1.15-10.13,0
					c-0.7-1.65-3.2,0.11-5.86,0c-0.15,0.2-0.31-0.2-0.46,0c-0.11-0.01-1.63-0.13-2.22,0c-0.23-0.22-0.56-0.01-0.65,0
					c-0.75,0.11-1.46-0.2-2.34,0c-0.18,0.11-1,0.28-1.5,0.35c-3.62,0.51-5.96-1.65-9.51-0.35c-1.13,0.42-2.46-0.35-3.69,0
					c-0.37,0.1-0.73-0.13-1.06,0c-1.5,0.59-2.91,0.76-3.52,0c-0.83-0.08-1.45,0-2.08,0c-0.48,0-1.06-0.15-1.43,0
					c-2.71,1.03-5.32-1-8.08,0c-1,0.36-2.31-0.24-3.48,0c-0.13,0.03-0.4-0.04-0.44,0c-0.91,0.72-1.98,0.13-3.02,0
					c-0.67-0.08-1.38,0.05-2.05,0c0.14-0.19-1.13-0.19-2.01,0c0.21-0.33-1.13-0.18-1.9,0c-0.19-0.16-0.42,0.18-0.64,0
					c-0.81-0.09-1.28,0.61-2.18,0c-0.37,0.22-0.86-0.45-1.62,0c-0.41-0.81-0.69,0.56-0.98,0c-2.99,1.37-6.63-0.11-10.96,0
					c0.14-0.34-3.04,0.74-3.46,0c-0.37-0.65-1.25-0.32-2.14-0.1c-1.69,0.43-3.78,0.17-3.78,0.17c-3.6,0.44-6.86-3.18-9.84-1.89
					c-1.01,0.44-2.01,1.07-3.18,1.18c-1.63,0.15-2.48,0.76-3.76,1.05c-1.08,0.24-1.91-0.3-2.32-0.9c-0.51,0.2-0.92,0.37-1.42,0.56
					c-0.69-0.28-1.37-0.55-2.26-0.9c0.61-0.12,0.88-0.18,1.32-0.27c-0.41-0.13-0.64-0.21-0.99-0.32c0.41-0.05,0.69-0.08,1.43-0.16
					c-0.85-0.28-1.37-0.55-1.99-0.63c-1.59-0.2-1.82-0.38-1.22-1.14c0.13-0.17,0.04-0.38,0.11-0.57c0.12-0.31,0.3-0.61,0.42-0.92
					c0.09-0.24,0.31-0.53,0.13-0.72c-0.11-0.13-0.82-0.12-1.47-0.19c0.52-0.46,1.11-0.97,1.68-1.49c2.24-2.04,1.32-2.89,3.82-4.84
					c1.88-2.06,0.02-2.15,1.84-3.79c0.1-0.09,0.15-0.25,0.29-0.28c1.91-0.38,0.56-0.42,0.92-1.2c-0.7,0.12-0.36-0.63-0.84-0.55
					c-1.1-0.37,1.98-1.9,0.74-2.31c-1.07,0.17,0.9-1.2,0.68-2.08c-0.85-0.11-1.63-0.13-2.22-0.31c-0.22-0.07,0.02-0.5,0.25-0.77
					c-0.18-0.5-0.36-1-0.52-1.5c-0.08-0.25-0.09-0.51-0.13-0.76c-0.5,0.11-1.01,0.21-1.5,0.33c-0.16,0.04-0.27,0.14-0.74,0.11
					c0.37-0.37,0.74-0.75,1.32-1.34c-1.1,0.17-1.91,0.26-2.66,0.42c-0.93,0.2-1.81,0.46-2.71,0.7c-0.09-0.07-0.18-0.14-0.28-0.21
					c0.39-0.16,0.78-0.32,1.27-0.52c-0.49-0.23-0.59-1-1.73-0.15c-0.25,0.18-1.34,0.08-2.09,0.11v-0.97
					c-0.08-0.02-0.17-0.04-0.25-0.06c-0.25,0.27-0.51,0.55-0.79,0.86c-0.45-0.01-0.98-0.03-1.51-0.05c0.27-0.76,2.81-1.08,1.88-2.21
					c-1.16,0.3-2.11,0.54-3.3,0.84c0.07-0.4,0.12-0.7,0.16-0.91c-0.5-0.12-1.08-0.22-1.58-0.38C0.13,29.46,0,29.28,0,29.15
					c0-0.06,0.39-0.13,0.62-0.17c0.63-0.13,1.27-0.24,2.27-0.43c-2.24-0.39-2.52-0.72-1.54-1.49c4.46-3.51,8.94-7.01,13.49-10.57
					c-1.41,0.33-2.68,0.62-3.93,0.9c-0.79-0.37-0.61-1.25-2.34-0.95c-0.07,0.01-0.39-0.33-0.54-0.46c-0.77,0.16-1.52,0.31-2.42,0.5
					v-1.13c0.26-0.01,0.68-0.02,1.4-0.05c-0.48-0.28-1.01-0.71-1.17-0.68c-0.74,0.16-1.39,0.43-2.42,0.79
					c0.52-0.38,0.83-0.61,1.36-1c-1.05-0.11-2.02-0.21-3.32-0.34c0.66-0.42,1.19-0.75,1.71-1.08c0.09,0.12,0.17,0.24,0.33,0.48
					c0.48-0.16,0.99-0.33,1.77-0.6c-0.98-0.11-1.58-0.17-2.28-0.25c0.22-0.22,0.41-0.4,0.59-0.58c-0.17,0.08-0.34,0.16-0.52,0.23
					c-0.1-0.17-0.39-0.43-0.27-0.5c0.43-0.22,0.99-0.37,1.33-0.48c0.03-0.2-0.1-0.46,0.11-0.61c2.79-1.96,5.58-3.93,8.47-5.85
					C17.24,1.82,22.3,4,27.54,1.29c3.16-1.64,5.86,1.68,8.92,0c3.04-1.67,4.34,1.2,8.19,0c1-0.31,1.81,0.35,2.76,0
					c0.49-0.18,1.1,0,1.87,0c0.41,0.07,1.22-0.21,1.87,0c0.54-0.21,0.83,0.08,1.19,0c0.72-0.17,1.47,0.14,2.21,0l0,0
					c1.09,0.09,2.32-0.67,1.94,0c-0.03,0.22,0.39-0.27,0.73-0.15c4.43-1.66,2.14,1.72,6.35,0.15c0.17,0.26,0.32-0.24,0.48,0
					c1.06-0.28,0.27,0.37,1.38,0.07c0.09,0.06,0.55-0.03,0.64,0.03c-0.48,0.28,0.29,0.03,0.58,0.05c0.05,0.03,0.38-0.13,0.42-0.1
					c0.66-0.24,0.22,0.38,1.18,0.03c-0.13,0.35,0.52-0.15,0.66,0.01c0.63-0.15,0.66-0.03,0.94-0.09c0.87-0.08,0.81-0.11,0.85,0
					c0.11,0.39,6.87,0.56,8.57,0c3.34-1.11,6.66,1.06,10.06,0c3.67-1.14,2.52,1.22,6.09,0c1.98-0.68,3.58-0.7,5.48,0
					c1.22,0.45,2.35,0.54,3.36,0c0.12-0.06,0.78-0.45,0.65,0c-0.07,0.36,3.23,0.13,3.77,0c-0.94,1.28,3.16-1.28,2.21,0
					c1.13-0.44,2.36,0.57,3.84,0c-0.33,0.3-0.53-0.18-0.73,0c5.89-2.08,10.98,2.23,17.18,0.07c-0.08,0.63,0.41-0.45,0.36-0.07
					c1.04-0.38,0.9,0.27,1.45,0.07c0.11,0.06,0.3-0.06,0.41,0c-0.16,0.14,1.24-0.19,1.09-0.05c1.4-0.21,1.2,0.35,3.11,0.06
					c-0.09,0.16,0.72-0.27,0.74-0.08c0.7-0.18,1.55,0.22,2.4,0c0.31-0.21,0.69,0.27,1.07,0c0.14,0.04,0.27-0.04,0.4,0
					c-0.35,0.51,0.29-0.04,0.5-0.11c-0.02,0.19-0.04,0.33,0.37,0.17c0.35,0.44,0.9-0.68,0.91-0.1c5.15-1.89,7.54,1.99,12.84,0.04
					c0.21,0.26,0.39-0.14,0.51,0c1.05-0.07,3.84-0.52,5.39,0.01c-0.4,0.77,1.29-0.01,1.29-0.01l0,0c1.23-0.14,2.37,0.16,3.77,0
					c-2.01,1.65,1.72,1.32,2.83,0.21c2.39-0.83,3.46,0.59,5.91-0.21c0.01,0.12,0.03-0.12,0.04,0c0.47,0.11,0.91-0.06,1.41,0
					c0.57,0.08,1.18-0.03,1.77,0c0.04,0.09,0.08-0.09,0.12,0c0.66-0.4,2.15-0.02,2.24,0c-0.25,0.21,0.05,0.29,0.36,0
					c0.59-0.01,1.28-0.43,1.9-0.38c4.65-1.77,8.68,1.94,13.4,0.61c0.22-0.06,0.45-0.14,0.67-0.22c0.65-0.1,1.5,0.13,3.29-0.23
					c-0.21,0.43,2.01,0.54,3.48,0.23c0.22,0.21,0.44-0.19,0.64,0c-0.4,0.37,2.1,0,2.1,0c3.51-1.25,7.02,1.3,10.67,0
					c0.33,0.51,0.57-0.28,0.75,0c1.25-0.53,2.5,0.53,3.75,0c0.65,0.34,1.55-0.1,2.45-0.21c1.36-0.15,4.08,0.26,5.44,0.21
					c0.67-0.03,1.58-0.11,2.39,0c0.02,0.1,0.04-0.1,0.06,0c3.61-1.31,7.22,1.31,10.83,0c0.1,0.06,0.21-0.06,0.31,0
					c-0.2,0.18,1.44,0.19,2.4,0c0.07,0.06,0.38-0.09,0.66,0c0.61-0.23,0.98-0.26,1.56-0.44c0.16-0.05,1.27-0.91,2.83,0.43
					c0.67-0.22,1.81-0.43,2.17-0.46c0.45-0.04,0.81,0.21,1.35,0.07c0.19,0.7,0.27-0.68,0.53,0c0.05,0.13,0.49-0.06,0.81,0
					c0.95,0.18,1.85,0.23,2.98,0c0.11-0.02,0.34-0.15,0.77,0c-0.55,0.14,0.95,0.33,2.25,0c0.8,1.05,1.54-1.03,2.33,0
					c0,0,2.31-0.88,1.54,0c1.62,0.12,4.01-2.04,4.54,0c0.43-0.09,0.87,0.1,1.32,0c0.23,0.57,0.42-0.51,0.63,0
					c4.36-1.56,8.67,5.21,12.98,3.67c0.57,0.19,1.03,0.33,1.75,0.56c1.39-0.25,3.11-0.57,5.09-0.93c0.73,0.35,1.1,0.86,0.01,1.44
					c0.92,0.27,1.84,0.55,2.93,0.87c0.06-0.01,0.47-0.09,0.87-0.17c0.08,0.05,0.15,0.09,0.23,0.14c-0.51,0.32-1.02,0.65-1.6,1.01
					c1.21,0.18,1.44,0.48,0.67,0.93c-0.16,0.09-0.31,0.26-0.25,0.36c0.9,1.41-1.46,2.1-2.7,3.01c-0.78,0.58-0.91,0.51,0.44,0.74
					c0.32,0.05,0.53,0.3,0.75,0.47c0.26,0.2,0.48,0.41,0.84,0.71c-1.05,0.26-2.54,0.34-3.76,0.99c0.69,0.09,1.24,0.16,2.08,0.27
					c-0.52,0.28-0.97,0.53-1.64,0.9c0.29,0.04,0.65,0.09,1,0.15c0.13,0.02,0.36,0.05,0.37,0.09c0.15,0.44,0.6,0.95,0.32,1.32
					c-0.56,0.73-0.73,0.72,0.22,1.31c-0.36,0.13-0.72,0.26-1.1,0.4c0.11,0.06,0.2,0.16,0.31,0.16c1.13,0.06,1.06,0.34,0.55,0.71
					c-3.65,2.62-6.7,6.21-5.42,5.9c1.98-0.48,3.53-1.38,5.33-2.06c0.76-0.29,1.67-0.48,2.7-0.77c-0.08,0.29-0.13,0.49-0.23,0.85
					c0.48-0.19,0.79-0.31,1.27-0.5v1.09c0.3-0.11,0.76-0.21,1.06-0.39c0.87-0.51,1.77-0.26,2.46,0.03c0.22,0.1-0.17,0.55-0.34,1.01
					c1.8,0.18,3.91,0.4,6.03,0.61c0.06,0.06,0.12,0.12,0.18,0.18c-0.4,0.12-0.98,0.38-1.17,0.32c-1.3-0.39-1.47,0.19-2.32,0.49
					c1.46,0.07,2.56,0.21,1.87,0.9c-1.26,1.25-2.7,2.46-4.1,3.67c-0.33,0.29-0.77,0.55-1.21,0.86c1.18-0.28,2.24-0.53,3.28-0.77
					c0,0.45-0.11,0.9,0.07,1.31c0.05,0.11,0.96,0.13,1.62,0.2c0.05,0.1,0.15,0.3,0.26,0.53h-1.61v0.61
					c0.34-0.05,0.68-0.12,1.03-0.14c0.82-0.05,1.64-0.07,2.46-0.1c0.03,0.07,0.06,0.15,0.09,0.22c-0.56,0.19-1.13,0.39-1.84,0.63
					c0.46,0.13,0.9,0.26,1.47,0.43c-0.01,0.07-0.06,0.28-0.11,0.51c0.86-0.11,1.59-0.19,2.32-0.28c0.09,0.09,0.18,0.17,0.28,0.26
					C308.46,35.76,307.87,35.88,307.4,36.06"/>
			</g>
		</g>
	</g>
</g>
</svg>
