<?xml version="1.0" encoding="utf-8"?>
<!-- Generator: Adobe Illustrator 23.0.1, SVG Export Plug-In . SVG Version: 6.00 Build 0)  -->
<svg version="1.1" id="Layer_1" xmlns="http://www.w3.org/2000/svg" xmlns:xlink="http://www.w3.org/1999/xlink" x="0px" y="0px"
	 viewBox="0 0 115.44 60" style="enable-background:new 0 0 115.44 60;" xml:space="preserve">
<style type="text/css">
	.st0{fill:#F9C6E2;}
</style>
<g>
	<g>
		<path class="st0" d="M29.93-0.01c0.27,0.04,0.53,0.12,0.8,0.13c0.49,0.01,0.91,0.16,1.26,0.52c0.28,0.28,0.62,0.45,0.84,0.85
			c0.82,1.49,1.29,3.07,1.03,4.75c-0.19,1.26-0.52,2.51-0.94,3.71c-0.52,1.47-1.24,2.88-1.8,4.34c-0.94,2.46-2.43,4.59-3.91,6.73
			c-0.41,0.6-0.87,1.18-1.4,1.68c-1.52,1.42-2.94,2.96-4.73,4.06c-0.16,0.1-0.31,0.34-0.33,0.53c-0.19,1.63-0.4,3.26-0.5,4.89
			c-0.05,0.87,0.11,1.75,0.14,2.63c0.07,1.47,0.14,2.95,0.16,4.42c0.02,1.33,0.59,2.35,1.64,3.13c0.31,0.23,0.57,0.24,0.89-0.01
			c0.53-0.43,0.92-0.95,1.22-1.55c1.76-3.5,3.52-7.01,5.28-10.52c0.33-0.65,0.69-1.3,0.9-1.99c0.39-1.3,0.69-2.63,1.02-3.94
			c0.33-1.31,0.61-2.62,0.97-3.92c0.16-0.59,0.45-1.15,0.68-1.72c0.03-0.06,0.06-0.13,0.11-0.17c0.21-0.2,1.18-0.17,1.32,0.09
			c0.1,0.18,0.07,0.43,0.09,0.65c0.02,0.21-0.06,0.49,0.05,0.61c0.38,0.45,0.28,0.94,0.24,1.45c-0.03,0.42,0.05,0.86,0.09,1.28
			c0.03,0.29,0.1,0.57,0.12,0.85c0.06,1.11,0.09,2.23,0.16,3.34c0.11,1.63,0.06,3.25-0.23,4.86c-0.09,0.52-0.06,1.06-0.06,1.6
			c0,0.48,0.01,0.97,0.07,1.44c0.09,0.72,0.2,1.44,0.35,2.15c0.05,0.22,0.25,0.41,0.43,0.68c0.35-0.34,0.69-0.6,0.95-0.92
			c1.66-2.04,3.26-4.13,4.54-6.44c0.2-0.36,0.22-0.81,0.31-1.22c0.36-1.59,0.71-3.19,1.08-4.78c0.25-1.06,0.53-2.11,0.77-3.16
			c0.05-0.23,0.16-0.33,0.36-0.37c0.68-0.13,1.32,0.04,1.92,0.33c0.15,0.08,0.25,0.35,0.28,0.55c0.23,1.64,0.48,3.28,0.62,4.93
			c0.08,0.91-0.03,1.84-0.07,2.76c-0.02,0.4-0.07,0.8-0.14,1.19c-0.12,0.62-0.28,1.23-0.4,1.84c-0.15,0.75-0.33,1.51-0.38,2.27
			c-0.1,1.36-0.1,2.72-0.15,4.08c-0.01,0.21-0.01,0.42-0.08,0.61c-0.28,0.85-0.15,1.72-0.13,2.58c0,0.13,0.06,0.25,0.12,0.49
			c0.48-0.71,0.93-1.32,1.31-1.97c1.82-3.1,3.58-6.23,5.45-9.3c0.69-1.13,1-2.27,1.12-3.58c0.26-2.96,0.7-5.9,1.07-8.85
			c0.06-0.52,0.14-1.04,0.18-1.56c0.01-0.1-0.11-0.29-0.2-0.32c-0.84-0.3-1.69-0.58-2.54-0.85c-0.82-0.26-1.65-0.51-2.47-0.75
			c-0.38-0.11-0.77-0.18-1.15-0.31c-0.61-0.21-1.22-0.17-1.84-0.11c-0.39,0.03-0.79,0.01-1.18,0.01c-0.02-0.04-0.03-0.08-0.05-0.13
			c0.09-0.1,0.16-0.24,0.28-0.3c1.05-0.65,2.19-0.95,3.43-0.81c1.14,0.12,2.27,0.25,3.41,0.34c0.56,0.04,1.13-0.03,1.69-0.03
			c0.2,0,0.41,0.02,0.61,0.06c0.35,0.07,0.48-0.06,0.54-0.41c0.19-1.14,0.41-2.27,0.64-3.4c0.03-0.16,0.21-0.44,0.29-0.43
			c0.24,0.03,0.55,0.12,0.68,0.3c0.31,0.42,0.55,0.87,0.36,1.46c-0.09,0.29-0.03,0.63-0.01,0.94c0.04,0.59,0.08,1.18,0.18,1.76
			c0.03,0.19,0.24,0.42,0.42,0.5c1.54,0.71,3.09,1.02,4.73,0.26c0.9-0.41,1.85-0.71,2.78-1.05c0.15-0.05,0.31-0.08,0.47-0.11
			c0.09,0.35,0.19,0.65,0.25,0.95c0.02,0.09-0.07,0.25-0.15,0.3c-0.6,0.35-1.21,0.69-1.83,1c-0.44,0.22-0.91,0.38-1.36,0.57
			c-0.21,0.09-0.43,0.18-0.63,0.28c-0.1,0.05-0.21,0.13-0.27,0.23c-0.12,0.2-0.21,0.35-0.48,0.21c-0.07-0.04-0.22,0-0.3,0.05
			c-0.61,0.35-1.25,0.52-1.97,0.43c-0.46-0.06-0.93-0.01-1.48-0.01c0,0.59,0,1.18,0,1.76c0.02,2.3,0.09,4.6,0.05,6.89
			c-0.05,2.63-0.2,5.26-0.29,7.89c-0.07,2.05-0.1,4.11-0.15,6.16c-0.01,0.45-0.02,0.91-0.04,1.36c-0.02,0.34,0.06,0.64,0.37,0.81
			c0.33,0.18,0.6,0.02,0.8-0.23c0.71-0.89,1.46-1.76,2.09-2.71c1.49-2.2,2.92-4.44,4.38-6.66c0.41-0.62,0.86-1.22,1.25-1.85
			c0.88-1.43,1.74-2.86,2.6-4.3c0.27-0.45,0.43-0.54,0.81-0.37c0.36,0.16,0.43,0.38,0.24,0.72c-0.51,0.93-0.97,1.88-1.51,2.79
			c-0.89,1.49-1.85,2.93-2.72,4.43c-0.88,1.51-1.73,3.04-2.53,4.59c-0.66,1.27-1.44,2.41-2.61,3.25c-0.24,0.17-0.44,0.42-0.65,0.63
			c-0.5,0.48-1.07,0.83-1.79,0.8c-0.64-0.04-1.29-0.09-1.92-0.21c-1-0.19-1.71-0.81-2.01-1.76c-0.27-0.86-0.43-1.76-0.59-2.64
			c-0.34-1.91-0.29-3.84-0.2-5.77c0-0.09,0-0.19-0.07-0.31c-0.08,0.12-0.16,0.24-0.23,0.36c-1.14,2.03-2.3,4.04-3.39,6.09
			c-0.69,1.3-1.65,2.36-2.68,3.38c-0.37,0.37-0.75,0.73-1.1,1.13c-0.48,0.54-1.08,0.53-1.71,0.47c-0.09-0.01-0.19-0.05-0.28-0.06
			c-1.41-0.12-2.27-0.87-2.6-2.25c-0.27-1.11-0.3-2.24-0.22-3.37c0.11-1.55,0.23-3.11,0.34-4.66c0-0.06-0.02-0.13-0.04-0.27
			c-0.14,0.15-0.24,0.24-0.31,0.34c-0.64,0.9-1.27,1.79-1.9,2.69c-0.74,1.05-1.67,1.89-2.85,2.38c-0.43,0.18-0.97,0.11-1.46,0.12
			c-0.27,0-0.54-0.09-0.81-0.12c-0.75-0.1-1.36-0.42-1.84-1.04c-1.23-1.62-1.48-3.51-1.56-5.46c-0.01-0.2,0-0.4-0.08-0.62
			c-0.06,0.12-0.12,0.23-0.18,0.35c-0.27,0.57-0.5,1.17-0.8,1.72c-1.29,2.37-2.6,4.73-3.92,7.07c-0.59,1.04-1.24,2.05-2.12,2.89
			c-0.87,0.83-1.87,1.41-3.08,1.56c-0.35,0.04-0.77-0.06-1.09-0.22c-0.87-0.44-1.44-1.18-1.83-2.06c-0.61-1.36-0.86-2.81-1.07-4.27
			c-0.2-1.35-0.36-2.7-0.53-4.05c-0.01-0.05-0.04-0.1-0.06-0.15c0-0.69,0-1.38,0-2.07c0.02-0.09,0.06-0.19,0.06-0.28
			c0.07-1.34,0.13-2.67,0.19-4.01c0.09-1.83,0.17-3.66,0.59-5.45c0.36-1.5,0.71-3,1.02-4.51c0.21-1.04,0.22-2.13,0.53-3.13
			c0.78-2.5,1.67-4.98,2.54-7.45c0.31-0.87,0.7-1.7,1.06-2.55c1.17-2.79,3.46-4.21,6.22-5.05c0.57-0.17,1.18-0.23,1.77-0.34
			C29.71-0.01,29.82-0.01,29.93-0.01z M20.83,25.36c0.05,0.02,0.09,0.04,0.14,0.06c0.06-0.03,0.12-0.05,0.18-0.08
			c1.38-0.91,2.62-1.99,3.66-3.26c3.3-4.04,5.43-8.64,6.42-13.77c0.2-1.04,0.29-2.09,0.05-3.16c-0.22-0.96-0.68-1.8-1.1-2.67
			c-0.03-0.07-0.1-0.13-0.16-0.19c-0.82-0.81-1.58-0.74-2.23,0.2c-0.04,0.06-0.07,0.12-0.11,0.17c-1.64,2.35-2.7,4.96-3.55,7.69
			c-0.92,2.95-1.72,5.91-2.02,9c-0.13,1.36-0.31,2.73-0.82,4.03C21.05,24,20.98,24.7,20.83,25.36z"/>
		<path class="st0" d="M93.16,59.99c-0.77-0.11-1.56-0.19-2.32-0.35c-1.25-0.26-2.36-0.79-3.05-1.93c-0.76-1.24-0.74-2.57-0.27-3.9
			c0.59-1.69,1.6-3.13,2.86-4.39c2.41-2.38,5.04-4.49,7.84-6.39c1.3-0.88,2.61-1.74,3.92-2.61c0.12-0.08,0.24-0.17,0.42-0.3
			c-0.15-0.1-0.25-0.22-0.38-0.26c-1.04-0.32-2.06-0.73-3.12-0.91c-0.84-0.14-1.73-0.03-2.59,0.02c-1.7,0.11-3.41,0.24-5.11,0.4
			c-1.39,0.13-2.73,0.48-3.99,1.12c-0.23,0.12-0.64,0.2-0.78,0.08c-0.24-0.2-0.39-0.57-0.44-0.89c-0.03-0.16,0.2-0.43,0.37-0.56
			c0.4-0.29,0.49-0.73,0.69-1.13c0.09-0.17,0.19-0.33,0.31-0.48c0.47-0.58,1-1.11,1.41-1.72c0.83-1.24,1.93-2.22,2.95-3.29
			c0.99-1.04,1.91-2.14,2.85-3.22c0.16-0.18,0.26-0.41,0.4-0.66c-0.1-0.02-0.16-0.05-0.2-0.04c-0.96,0.34-1.91,0.69-2.87,1.02
			c-0.5,0.17-1.02,0.34-1.54,0.46c-1.14,0.26-2.28,0.54-3.43,0.7c-2.15,0.3-4.09-0.21-5.73-1.8c0.94-0.43,1.79-0.94,2.78-1.22
			c4.64-1.32,9.26-2.7,13.87-4.12c0.87-0.27,1.67-0.77,2.51-1.14c0.29-0.12,0.62-0.16,0.92-0.23c0.03,0.29,0.14,0.6,0.08,0.87
			c-0.09,0.37-0.29,0.73-0.46,1.08c-0.75,1.54-1.62,3.03-2.8,4.27c-1.92,2-3.43,4.31-5.17,6.45c-0.27,0.33-0.55,0.64-0.83,0.95
			c0.02,0.03,0.04,0.06,0.05,0.09c0.11-0.02,0.22-0.03,0.33-0.06c3.22-0.91,6.38-0.71,9.46,0.56c0.7,0.29,1.33,0.77,1.96,1.21
			c1.24,0.88,0.81,0.88,1.9-0.04c2.75-2.34,5.47-4.72,8.2-7.08c0.06-0.05,0.13-0.11,0.19-0.16c0.42-0.33,0.57-0.33,0.96,0.01
			c0,0.14,0,0.28,0,0.41c-0.35,0.66-0.85,1.25-0.96,2.03c-0.03,0.22-0.16,0.46-0.32,0.61c-1.02,1.02-2,2.09-3.1,3.02
			c-1.2,1.02-2.52,1.91-3.77,2.86c-0.67,0.51-0.68,0.59-0.12,1.22c0.55,0.62,0.94,1.32,0.97,2.14c0.03,0.79,0,1.6-0.12,2.38
			c-0.26,1.7-0.91,3.27-1.65,4.82c-1,2.07-2.07,4.1-3.41,5.98c-1.13,1.6-2.64,2.69-4.34,3.57c-0.22,0.11-0.46,0.19-0.7,0.23
			c-0.66,0.1-1.33,0.18-2,0.26C94.92,59.99,94.04,59.99,93.16,59.99z M103.41,42.11c-0.73,0.31-1.37,0.54-1.97,0.84
			c-1.21,0.61-2.42,1.23-3.6,1.9c-0.36,0.2-0.61,0.59-0.94,0.86c-1.31,1.13-2.63,2.26-3.95,3.39c-0.38,0.32-0.76,0.64-1.11,0.99
			c-0.99,0.99-1.99,1.97-2.93,3.01c-0.78,0.87-0.75,1.93-0.53,3.01c0.25,1.21,0.69,1.9,2.35,2.14c1.01,0.14,2.06,0.05,3.09,0
			c0.87-0.04,1.68-0.25,2.27-0.99c0.3-0.38,0.67-0.7,0.98-1.07c0.87-1.05,1.77-2.08,2.57-3.18c0.54-0.74,0.94-1.58,1.39-2.39
			c1.22-2.15,2.05-4.44,2.37-6.9C103.46,43.21,103.41,42.69,103.41,42.11z"/>
		<path class="st0" d="M75.01,16.01c0.96-1.42,1.73-1.02,2.67-0.08c0.47-0.25,0.92-0.49,1.38-0.73c0.07-0.04,0.17-0.07,0.24-0.05
			c0.51,0.16,0.82-0.16,1.16-0.44c-0.06-0.56-0.13-1.11-0.17-1.67c-0.01-0.07,0.13-0.16,0.21-0.26c0.48,0.51,0.94,1.01,1.41,1.49
			c0.58,0.6,1.17,1.19,1.75,1.78c0.09,0.09,0.18,0.17,0.28,0.25c0.81,0.63,1.08,1.45,0.94,2.45c-0.09,0.67-0.19,1.34-0.23,2.01
			c-0.08,1.46-0.65,2.71-1.41,3.94c-1.07,1.74-2,3.57-2.6,5.54c-0.24,0.79-0.49,1.6-0.1,2.44c0.04,0.08,0,0.21-0.02,0.31
			c-0.05,0.28-0.18,0.56,0.13,0.78c0.05,0.04,0.04,0.19,0.02,0.29c-0.05,0.25-0.17,0.49-0.16,0.74c0.07,2.71,0.16,5.43,0.25,8.14
			c0.01,0.25,0.08,0.51,0.12,0.79c-3.05,0-6.08,0-9.11,0c0.04-0.64,0.1-1.25,0.12-1.87c0.07-2.05,0.12-4.11,0.17-6.16
			c0.01-0.43,0.01-0.87-0.01-1.3c-0.01-0.11-0.2-0.2-0.22-0.31c-0.07-0.6-0.3-1.16-0.06-1.81c0.14-0.37-0.03-0.9-0.17-1.32
			c-0.44-1.28-0.93-2.54-1.39-3.82c-0.41-1.12-0.9-2.22-1.17-3.38c-0.23-0.93-0.21-1.93-0.27-2.9c-0.08-1.2,0.24-2.3,0.88-3.33
			c0.49-0.78,1.49-1.34,2.42-1.07c0.2,0.06,0.33,0.03,0.49-0.14C73.26,15.52,74.13,15.43,75.01,16.01z M82.3,18.77
			c-0.61,0.09-0.47,0.54-0.5,0.91c-0.04,0.41-0.09,0.82-0.21,1.21c-0.16,0.5-0.5,0.96-0.25,1.54c-0.1-0.14-0.2-0.28-0.33-0.46
			c-0.16,0.29-0.3,0.56-0.41,0.78c-0.13-0.06-0.23-0.1-0.35-0.16c1-0.9,1.41-2.06,1.34-3.39c-0.01-0.11-0.11-0.22-0.16-0.33
			c-0.06,0.1-0.14,0.19-0.19,0.3c-0.25,0.6-0.47,1.22-0.75,1.81c-0.22,0.47-0.65,0.69-1.16,0.6c-0.31-0.05-0.6-0.21-0.92-0.34
			c-0.15,0.73-0.54,1.29-1.39,1.42c-0.76,0.11-1.27-0.24-1.62-0.92c-0.38,0.48-0.74,0.95-1.43,0.83c-0.64-0.11-0.86-0.69-1.22-1.13
			c-0.1,0.11-0.17,0.19-0.25,0.26c-0.76,0.67-1.82,0.44-2.18-0.5c-0.18-0.48-0.3-1-0.39-1.51c-0.06-0.34-0.01-0.69-0.01-1.03
			c0.06,0,0.11,0,0.17,0c0.01,0.13,0.02,0.26,0.04,0.38c0.11,0.66,0.16,1.33,0.33,1.98c0.22,0.83,1.07,1.1,1.79,0.62
			c0.3-0.2,0.42-0.43,0.27-0.83c-0.45-1.19-0.58-2.42-0.39-3.69c0.03-0.23-0.02-0.36-0.25-0.44c-0.54-0.18-1.07-0.12-1.45,0.29
			c-0.4,0.42-0.79,0.9-1.03,1.42c-0.68,1.53-0.66,3.15-0.28,4.73c0.3,1.29,0.77,2.54,1.22,3.79c0.6,1.65,1.38,3.24,1.61,5
			c0.01,0.09,0.04,0.23,0.1,0.25c0.36,0.14,0.57,0.5,1.02,0.54c0.33,0.03,0.66,0.29,1.04,0.23c0.03-0.01,0.07,0.05,0.11,0.06
			c0.15,0.04,0.31,0.07,0.47,0.1c0.13,0.02,0.27,0.03,0.4,0.06c0.17,0.03,0.33,0.12,0.5,0.11c1.35-0.04,2.67-0.31,3.95-0.73
			c0.34-0.11,0.48-0.3,0.54-0.63c0.11-0.61,0.22-1.22,0.38-1.81c0.55-1.97,1.48-3.78,2.54-5.52c0.61-1.01,1.15-2.05,1.32-3.22
			c0.16-1.1,0.24-2.21,0.32-3.32c0.02-0.27-0.06-0.62-0.22-0.81c-0.5-0.58-1.07-1.09-1.6-1.62c-1.04,0.63-1.29,0.56-2.3-0.63
			c-0.22,1.12-0.17,2.18,0.44,3.18c0.26,0.42,0.58,0.65,1.08,0.59C82.13,18.72,82.22,18.76,82.3,18.77z M80.26,34.5
			c-0.42,0.03-0.79,0.05-1.15,0.08c-0.95,0.07-1.89,0.14-2.84,0.22c-1.18,0.11-2.35,0.25-3.53,0.34c-0.35,0.03-0.44,0.16-0.44,0.48
			c-0.02,1.14-0.05,2.29-0.09,3.43c-0.04,1.03-0.1,2.07-0.13,3.1c-0.02,0.46,0,0.92,0,1.37c2.84,0,5.63,0,8.46,0
			C80.44,40.5,80.35,37.51,80.26,34.5z M72.21,17.94c0.05,0.49,0.1,1.03,0.17,1.58c0.13,0.93,0.46,1.77,1.06,2.51
			c0.29,0.35,0.68,0.45,1.07,0.29c0.52-0.21,0.83-0.8,0.71-1.35c-0.05-0.24-0.1-0.48-0.16-0.72c-0.28-1.15-0.5-2.31-0.24-3.5
			c0.12-0.55-0.07-0.82-0.63-0.87c-0.23-0.02-0.47,0-0.69,0.05C72.67,16.11,72.29,16.67,72.21,17.94z M78.19,20.36
			c0.04-0.01,0.07-0.01,0.11-0.02c-0.2-1.26-0.39-2.52-0.61-3.77c-0.12-0.69-0.73-1.24-1.43-1.28c-0.2-0.01-0.5,0.06-0.61,0.21
			c-0.44,0.54-0.68,1.17-0.71,1.89c-0.06,1.48,0.38,2.88,0.72,4.29c0.09,0.39,0.39,0.66,0.8,0.76c0.84,0.22,1.68-0.4,1.73-1.28
			C78.2,20.88,78.19,20.62,78.19,20.36z M81.06,18.91c-0.08-0.21-0.15-0.44-0.25-0.66c-0.15-0.32-0.35-0.62-0.47-0.96
			c-0.17-0.48-0.28-0.97-0.42-1.46c-0.07-0.25-0.09-0.56-0.45-0.53c-0.52,0.04-0.98,0.22-1.36,0.6c-0.33,0.34-0.14,0.69-0.09,1.04
			c0.17,1.18,0.33,2.36,0.5,3.55c0.05,0.35,0.17,0.68,0.53,0.82c0.37,0.14,0.77,0.15,1.02-0.17C80.55,20.5,80.87,19.75,81.06,18.91z
			 M80.6,13.32c-0.04,0.03-0.08,0.07-0.12,0.1c0.05,0.75,0.14,1.49,0.74,2.04c0.18,0.17,0.49,0.25,0.74,0.26
			c0.2,0.01,0.4-0.17,0.61-0.26c-0.09-0.16-0.16-0.33-0.26-0.48c-0.13-0.19-0.27-0.39-0.44-0.55C81.46,14.05,81.03,13.69,80.6,13.32
			z"/>
		<path class="st0" d="M77.98,22.74c-0.12,0.19-0.24,0.39-0.35,0.58c-0.54,0.93-1.04,1.88-1.11,2.98c-0.11,1.56,0.47,2.84,1.6,3.9
			c0.12,0.11,0.24,0.23,0.35,0.34c-0.04,0.04-0.07,0.08-0.11,0.11c-0.28-0.26-0.6-0.49-0.84-0.78c-1.35-1.67-1.66-3.48-0.67-5.44
			c0.3-0.6,0.65-1.19,0.98-1.78C77.88,22.68,77.93,22.71,77.98,22.74z"/>
		<path class="st0" d="M75.62,24.31c-0.27,2.15,0.19,4.11,1.55,5.82C75.77,28.91,74.98,25.93,75.62,24.31z"/>
		<path class="st0" d="M74.87,27.56c-0.17-0.48-0.32-0.97-0.52-1.45c-0.21-0.52-0.43-1.04-0.7-1.54c-0.26-0.48-0.58-0.93-0.86-1.36
			c0.68,0.25,2,2.81,2.18,4.29C74.94,27.53,74.9,27.55,74.87,27.56z"/>
		<path class="st0" d="M76.59,19.41c-0.18-0.07-0.31-0.12-0.45-0.16c-0.5-0.18-0.75-0.58-0.7-1.12c0.04-0.45,0.4-0.84,0.82-0.91
			c0.47-0.07,0.89,0.15,1.09,0.56c0.23,0.47,0.12,0.95-0.28,1.3c-0.11,0.1-0.23,0.27-0.21,0.39c0.02,0.1,0.23,0.16,0.34,0.23
			c-0.12,0.22-0.26,0.46-0.39,0.68c-0.16-0.18-0.34-0.37-0.55-0.59C76.33,19.71,76.43,19.58,76.59,19.41z M76.44,17.44
			c-0.45,0-0.81,0.37-0.79,0.82c0.01,0.45,0.35,0.79,0.78,0.79c0.46,0,0.82-0.35,0.82-0.8C77.25,17.79,76.9,17.43,76.44,17.44z"/>
	</g>
	<path class="st0" d="M16.01,29.28c-1.06,1.29-2.47,2.97-4.34,5.15C3.65,43.8,0.68,42.5,0.23,43.12s0.47,0.42,0.47,0.42
		s4.7-1.16,11.46-8.11c3-3.09,3.96-4.26,3.65-3.91"/>
</g>
</svg>
